<?xml version="1.0" encoding="UTF-8"?>
<!DOCTYPE svg PUBLIC "-//W3C//DTD SVG 1.1//EN" "http://www.w3.org/Graphics/SVG/1.1/DTD/svg11.dtd">
<!-- Creator: CorelDRAW X7 -->
<svg xmlns="http://www.w3.org/2000/svg" xml:space="preserve" width="123.923mm" height="130.171mm" version="1.1" style="shape-rendering:geometricPrecision; text-rendering:geometricPrecision; image-rendering:optimizeQuality; fill-rule:evenodd; clip-rule:evenodd"
viewBox="0 0 12345 12967"
 xmlns:xlink="http://www.w3.org/1999/xlink">
 <defs>
  <style type="text/css">
   <![CDATA[
    .fil2 {fill:none}
    .fil0 {fill:#FEFEFE}
    .fil3 {fill:#373435}
    .fil10 {fill:#3E4095}
    .fil11 {fill:#3E4095;fill-rule:nonzero}
    .fil6 {fill:url(#id0)}
    .fil5 {fill:url(#id1)}
    .fil9 {fill:url(#id2)}
    .fil1 {fill:url(#id3)}
    .fil4 {fill:url(#id4)}
    .fil8 {fill:url(#id5)}
    .fil7 {fill:url(#id6)}
   ]]>
  </style>
  <linearGradient id="id0" gradientUnits="userSpaceOnUse" x1="6077.41" y1="2571.04" x2="6308.1" y2="914.764">
   <stop offset="0" style="stop-opacity:1; stop-color:#40407D"/>
   <stop offset="0.14902" style="stop-opacity:1; stop-color:#5B81C0"/>
   <stop offset="0.301961" style="stop-opacity:1; stop-color:#40407D"/>
   <stop offset="0.45098" style="stop-opacity:1; stop-color:#5B81C0"/>
   <stop offset="0.6" style="stop-opacity:1; stop-color:#40407D"/>
   <stop offset="0.74902" style="stop-opacity:1; stop-color:#5B81C0"/>
   <stop offset="0.901961" style="stop-opacity:1; stop-color:#40407D"/>
   <stop offset="1" style="stop-opacity:1; stop-color:#5B81C0"/>
  </linearGradient>
  <linearGradient id="id1" gradientUnits="userSpaceOnUse" xlink:href="#id0" x1="5484.6" y1="7357.3" x2="6662.07" y2="1614.24">
  </linearGradient>
  <linearGradient id="id2" gradientUnits="userSpaceOnUse" x1="5010.92" y1="5098.49" x2="7977.51" y2="1430.07">
   <stop offset="0" style="stop-opacity:1; stop-color:#A1D8E9"/>
   <stop offset="1" style="stop-opacity:1; stop-color:#00A3D6"/>
  </linearGradient>
  <linearGradient id="id3" gradientUnits="userSpaceOnUse" x1="6122.82" y1="3718.59" x2="6122.82" y2="8894.68">
   <stop offset="0" style="stop-opacity:1; stop-color:#3E4095"/>
   <stop offset="1" style="stop-opacity:1; stop-color:#00AFEF"/>
  </linearGradient>
  <linearGradient id="id4" gradientUnits="userSpaceOnUse" xlink:href="#id3" x1="6192.69" y1="490.932" x2="6192.69" y2="2174.62">
  </linearGradient>
  <linearGradient id="id5" gradientUnits="userSpaceOnUse" x1="4193.68" y1="783.123" x2="8203.08" y2="5212.48">
   <stop offset="0" style="stop-opacity:1; stop-color:#6EB04F"/>
   <stop offset="0.2" style="stop-opacity:1; stop-color:#BCD751"/>
   <stop offset="0.4" style="stop-opacity:1; stop-color:#6EB04F"/>
   <stop offset="0.6" style="stop-opacity:1; stop-color:#BCD751"/>
   <stop offset="0.8" style="stop-opacity:1; stop-color:#6EB04F"/>
   <stop offset="1" style="stop-opacity:1; stop-color:#BCD751"/>
  </linearGradient>
  <linearGradient id="id6" gradientUnits="userSpaceOnUse" x1="5113.75" y1="1292.83" x2="7283.05" y2="5605.38">
   <stop offset="0" style="stop-opacity:1; stop-color:#E2A93C"/>
   <stop offset="0.2" style="stop-opacity:1; stop-color:#FCD654"/>
   <stop offset="0.4" style="stop-opacity:1; stop-color:#E2A93C"/>
   <stop offset="0.6" style="stop-opacity:1; stop-color:#FCD654"/>
   <stop offset="0.811765" style="stop-opacity:1; stop-color:#E2A93C"/>
   <stop offset="1" style="stop-opacity:1; stop-color:#FCD654"/>
  </linearGradient>
 </defs>
 <g id="Camada_x0020_1">
  <metadata id="CorelCorpID_0Corel-Layer"/>
  <g id="_953236298176">
   <path class="fil0" d="M6172 0c2609,0 4724,2149 4724,4798 0,2650 -2115,4798 -4724,4798 -2608,0 -4724,-2148 -4724,-4798 0,-2649 2116,-4798 4724,-4798z"/>
   <path class="fil0" d="M6503 4742c1304,0 2151,-627 2852,-1589l0 0 -556 0c-643,829 -1329,1360 -2305,1360 -1122,0 -2383,-1425 -3087,-2477l-363 238c689,1051 2154,2468 3459,2468z"/>
   <path class="fil0" d="M4128 8285l-288 0 288 -1602 653 0c186,0 316,47 389,141 72,94 97,206 74,334 -26,147 -96,265 -209,356 -114,91 -246,136 -395,136l-398 0 -114 635zm4357 3l-932 0 260 -1442 922 0 -38 215 -664 0 -71 390 534 0 -38 210 -533 0 -73 403 674 0 -41 224zm-985 0l-301 0 -215 -568 -439 568 -240 0 589 -751 -266 -691 300 0 179 480 366 -480 242 0 -517 658 302 784zm-1203 0l-258 0 259 -1442 258 0 -259 1442zm-319 0l-932 0 259 -1442 922 0 -38 215 -664 0 -70 390 533 0 -37 210 -534 0 -73 403 674 0 -40 224zm-1692 -885l340 0c89,0 160,-23 215,-66 55,-44 88,-102 102,-175 11,-66 0,-122 -35,-169 -35,-47 -109,-71 -221,-71l-314 0 -87 481z"/>
   <path class="fil0" d="M8774 3185c-631,-799 -1308,-1306 -2262,-1306 -735,0 -1529,610 -2187,1326 -16,-17 -32,-34 -48,-52 665,-731 1472,-1360 2217,-1360 976,0 1662,531 2305,1360l0 0c-8,11 -17,21 -25,32zm-4702 308c-245,292 -465,590 -648,863l-363 -238c11,-17 23,-34 34,-52l312 204c174,-261 383,-545 616,-824 16,15 33,31 49,47z"/>
   <path class="fil0" d="M6482 4834c1305,0 2150,-620 2850,-1582l21 -97c-700,961 -1547,1587 -2850,1587 -1282,0 -2719,-1369 -3422,-2413l-57 37c688,1051 2153,2468 3458,2468z"/>
   <path class="fil0" d="M6503 1565c1304,0 2151,626 2852,1588l0 0 0 0 -556 0c0,0 0,0 0,0l0 0c-643,-829 -1329,-1360 -2305,-1360 -745,0 -1552,629 -2217,1360 -87,-96 -172,-194 -254,-292 725,-703 1636,-1296 2480,-1296zm-2480 1881c-233,279 -442,563 -616,824l-363 -238c183,-278 420,-582 694,-879 91,99 186,197 285,293z"/>
   <path class="fil0" d="M7512 2239c-330,-83 -650,43 -714,281 -63,237 153,499 482,581 329,83 650,-43 713,-281 64,-237 -152,-498 -481,-581zm-99 69c-273,11 -489,181 -481,378 9,198 239,349 512,338 274,-11 490,-181 481,-379 -9,-197 -239,-349 -512,-337z"/>
   <path class="fil0" d="M7685 2434c-111,0 -201,105 -201,233 0,129 90,234 201,234 110,0 200,-105 200,-234 0,-128 -90,-233 -200,-233z"/>
   <path class="fil0" d="M7413 2308c-273,11 -489,181 -481,378 9,198 239,349 512,338 274,-11 490,-181 481,-379 -9,-197 -239,-349 -512,-337zm272 126c-111,0 -201,105 -201,233 0,129 90,234 201,234 110,0 200,-105 200,-234 0,-128 -90,-233 -200,-233z"/>
   <path class="fil0" d="M7620 3972c191,0 315,-92 418,-233l0 0 -82 0c-94,122 -194,200 -338,200 -164,0 -349,-209 -452,-364l-54 35c101,154 316,362 508,362z"/>
   <g>
    <path class="fil0" d="M4218 3087c0,0 0,0 0,0 316,355 666,690 1028,945 410,277 832,467 1207,480 14,0 28,1 41,1 283,0 551,-48 803,-136 568,-204 1033,-626 1477,-1192 -631,-799 -1308,-1306 -2262,-1306 -735,0 -1529,610 -2187,1326 -16,-17 -32,-34 -48,-52 250,-274 519,-534 797,-751 -278,217 -547,477 -797,751 -19,-22 -39,-44 -59,-66zm3402 885c191,0 315,-92 418,-233l0 0 -82 0c-94,122 -194,200 -338,200 -164,0 -349,-209 -452,-364l-54 35c101,154 316,362 508,362zm-108 -1733c-330,-83 -650,43 -714,281 -63,237 153,499 482,581 329,83 650,-43 713,-281 64,-237 -152,-498 -481,-581zm400 335c-1,-3 -2,-6 -3,-9l3 9zm-23 -50c-16,-30 -38,-57 -65,-82 27,25 49,52 65,82zm910 629c0,0 0,0 0,0 0,0 0,0 0,0zm0 0c-1,1 -1,1 -2,2 1,-1 1,-1 2,-2zm-3 3c0,0 0,0 0,1 0,-1 0,-1 0,-1zm-15 20c0,0 0,0 0,0 0,0 0,0 0,0zm-1 2c-1,0 -1,0 -1,1 0,-1 0,-1 1,-1zm-2 2c0,0 0,0 -1,1 1,-1 1,-1 1,-1zm-1 1c-1,1 -1,2 -2,3 1,-1 1,-2 2,-3zm-2 3c0,0 -1,0 -1,0 0,0 1,0 1,0z"/>
   </g>
   <path class="fil0" d="M6101 6608l-236 0 236 -1316 236 0 -236 1316zm576 20c-174,0 -298,-66 -371,-197 -73,-131 -92,-293 -57,-486 34,-191 114,-351 240,-480 126,-129 273,-193 442,-193 170,0 293,64 368,193 76,129 96,290 61,483 -36,203 -117,367 -242,492 -125,125 -272,188 -441,188zm36 -191c85,0 163,-35 235,-106 71,-71 124,-199 157,-385 27,-151 24,-269 -9,-354 -33,-86 -101,-129 -203,-129 -202,0 -332,163 -391,490 -29,159 -25,279 12,361 37,82 103,123 199,123zm-874 168l-277 0 -117 -601 -369 0 -108 601 -262 0 262 -1462 631 0c175,0 297,40 365,120 68,79 91,182 68,309 -33,188 -144,317 -331,387l138 646zm-725 -812l326 0c94,0 168,-19 222,-60 53,-39 86,-95 98,-165 12,-64 -1,-116 -40,-155 -38,-40 -98,-60 -180,-60l-347 0 -79 440z"/>
   <path class="fil0" d="M6034 6639l-236 0 6 -34 35 0 -19 -88 135 -747c38,-57 64,-123 77,-198 14,-74 11,-140 -6,-198l9 -51 60 0 -230 1285 175 0 -6 31zm576 20c-173,0 -297,-66 -370,-196 -39,-70 -63,-149 -71,-236l88 -491c42,-89 97,-169 166,-239 68,-70 143,-121 224,-153 -56,30 -109,71 -158,121 -126,129 -206,289 -240,480 -35,193 -16,355 57,486 73,131 197,197 371,197 80,0 154,-14 224,-42 -88,49 -185,73 -291,73zm197 -237c25,-16 50,-36 74,-60 72,-71 124,-198 158,-384 27,-151 24,-270 -9,-355 -33,-86 -101,-129 -203,-129 -36,0 -69,5 -100,15 49,-31 104,-46 166,-46 102,0 170,43 203,129 33,85 36,203 9,354 -33,186 -86,314 -157,385 -45,44 -92,74 -141,91zm-1034 215l-277 0 -118 -601 -308 0 6 -32 369 0 117 601 204 0 7 32zm-866 -32l-5 32 -263 0 263 -1462 61 0 -257 1430 201 0zm810 -652c-5,3 -10,6 -16,8l0 -2c5,-2 11,-4 16,-6zm-134 -179c4,-3 8,-6 12,-9 54,-40 86,-95 99,-165 11,-65 -2,-116 -40,-156 -38,-40 -98,-60 -180,-60l-287 0 6 -31 347 0c82,0 142,20 180,60 39,39 52,91 40,155 -12,70 -45,126 -98,165 -23,17 -49,31 -79,41z"/>
   <path class="fil0" d="M4055 8320l-288 0 288 -1603 67 0 -282 1568 221 0 -6 35zm818 -712c-92,51 -194,77 -306,77l-331 0 6 -35 398 0c83,0 161,-14 233,-42zm3540 714l-932 0 6 -34 13 0 -9 -23 249 -1385 66 0 -253 1408 866 0 -6 34zm217 -1261l-6 34 -598 0 7 -34 597 0zm-238 600l-6 34 -467 0 6 -34 467 0zm-965 661l-301 0 -200 -528 58 -74 215 568 215 0 13 34zm-928 -34l-27 34 -240 0 27 -34 38 0 12 -64 512 -653 -266 -691 86 0 253 657 -589 751 194 0zm593 -1003l309 -405 46 0 -340 446 -15 -41zm-868 1037l-258 0 6 -34 6 0 40 -224 -6 0 213 -1184 67 0 -253 1408 192 0 -7 34zm-319 0l-932 0 164 -912c54,-72 90,-156 107,-252 16,-87 10,-167 -19,-238l7 -40 67 0 -253 1408 865 0 -6 34zm217 -1261l-6 34 -597 0 6 -34 597 0zm-238 600l-6 34 -467 0 6 -34 467 0zm-1135 -276c6,-4 13,-9 19,-14 55,-44 89,-102 102,-175 12,-66 0,-122 -34,-169 -35,-47 -109,-70 -222,-70l-248 0 7 -35 314 0c112,0 186,24 221,71 35,47 46,103 35,169 -14,73 -47,131 -102,175 -27,21 -58,37 -92,48z"/>
   <path class="fil0" d="M7975 6751c-56,0 -97,-22 -121,-64 -24,-43 -30,-96 -19,-159 12,-62 38,-115 79,-157 41,-42 89,-63 144,-63 56,0 96,21 120,63 25,42 32,95 20,158 -11,66 -38,120 -79,161 -40,41 -88,61 -144,61zm-529 -7l77 -429 157 0c58,0 101,21 129,62 28,41 36,93 25,153 -11,61 -38,112 -82,153 -43,41 -99,61 -166,61l-140 0zm90 -63l64 0c35,0 66,-13 95,-39 29,-26 47,-65 57,-116 7,-42 3,-77 -13,-107 -15,-29 -40,-43 -75,-43l-73 0 -55 305zm451 8c28,0 53,-12 77,-35 23,-23 40,-65 51,-126 9,-49 8,-87 -3,-115 -11,-28 -33,-42 -66,-42 -66,0 -109,53 -128,160 -9,51 -8,91 4,118 12,26 34,40 65,40z"/>
   <path class="fil0" d="M7934 6771c-57,0 -97,-21 -121,-64 -12,-20 -19,-43 -22,-68 21,-32 36,-68 43,-109 6,-33 7,-63 1,-91 11,-17 23,-33 37,-47 25,-26 52,-43 82,-53 -14,9 -27,19 -40,32 -41,42 -67,95 -79,157 -11,63 -5,116 19,159 24,42 65,64 121,64 23,0 45,-4 65,-11 -32,21 -67,31 -106,31zm-530 -7l77 -429 38 0 -73 409 140 0c33,0 63,-5 91,-15 -37,24 -82,35 -133,35l-140 0zm232 -88c6,-4 12,-9 17,-14 29,-26 48,-65 57,-116 8,-42 3,-77 -12,-106 -16,-29 -41,-44 -75,-44l-36 0 4 -20 73 0c35,0 60,14 75,43 16,30 20,65 13,107 -10,51 -28,90 -57,116 -19,17 -38,28 -59,34zm372 10c5,-3 10,-7 14,-12 23,-23 41,-65 51,-125 9,-50 8,-88 -3,-116 -10,-28 -32,-42 -66,-42 -8,0 -15,1 -23,2 19,-15 40,-22 65,-22 33,0 55,14 66,42 11,28 12,66 3,115 -11,61 -28,103 -51,126 -18,17 -36,28 -56,32z"/>
   <path class="fil0" d="M2911 5382l-305 0 86 -503 94 0 -72 421 207 0c-14,-37 -16,-80 -8,-129 11,-61 36,-112 75,-153 40,-41 86,-62 139,-62 54,0 93,21 117,62 24,41 31,92 20,154 -11,64 -36,117 -75,157 -39,40 -85,59 -139,59 -55,0 -94,-21 -117,-62 -4,-6 -7,-13 -10,-19l-12 75zm948 6c-55,0 -94,-21 -117,-62 -24,-42 -30,-94 -20,-155 11,-61 36,-112 75,-153 40,-41 86,-62 139,-62 54,0 93,21 117,62 24,41 31,92 20,154 -11,64 -36,117 -75,157 -39,40 -85,59 -139,59zm11 -61c27,0 51,-11 74,-33 22,-23 39,-64 49,-123 8,-48 7,-86 -4,-113 -11,-27 -32,-41 -64,-41 -64,0 -105,52 -123,156 -8,51 -7,89 5,115 12,27 33,39 63,39zm-137 55l-80 0 -16 -100 -159 0 -49 100 -63 0 208 -419 92 0 67 419zm-105 -160l-29 -187 -92 187 121 0zm91 -373l16 32c-6,10 -17,18 -31,25 -14,7 -26,10 -36,10 -12,0 -27,-4 -44,-14 -12,-7 -22,-11 -29,-11 -9,0 -23,8 -42,24l-15 -32c22,-23 45,-35 67,-35 10,0 23,4 38,12 17,9 30,13 39,13 12,0 25,-8 37,-24zm-261 114l-49 289c-9,48 -25,83 -49,104 -24,22 -58,32 -103,32 -26,0 -46,-2 -59,-6l10 -61c23,2 38,3 48,3 24,0 42,-5 53,-15 10,-9 18,-28 23,-57l50 -289 76 0zm-397 364c27,0 52,-11 74,-33 22,-23 39,-64 49,-123 8,-48 7,-86 -4,-113 -11,-27 -32,-41 -64,-41 -64,0 -105,52 -123,156 -8,51 -7,89 5,115 12,27 33,39 63,39z"/>
   <path class="fil0" d="M2934 5361l-304 0 85 -504 94 0 -71 421 207 0c-14,-36 -16,-79 -8,-128 11,-62 36,-113 75,-154 39,-41 86,-61 139,-61 54,0 93,20 117,61 24,41 31,93 20,154 -11,65 -36,117 -75,157 -39,40 -86,60 -139,60 -55,0 -94,-21 -118,-63 -3,-6 -6,-12 -9,-19l-13 76zm949 6c-55,0 -94,-21 -118,-63 -23,-41 -29,-93 -19,-154 10,-62 35,-113 75,-154 39,-41 86,-61 139,-61 54,0 92,20 117,61 24,41 31,93 20,154 -11,65 -36,117 -75,157 -40,40 -86,60 -139,60zm11 -61c27,0 51,-11 74,-34 22,-22 38,-63 48,-122 9,-48 7,-86 -3,-113 -11,-28 -32,-41 -65,-41 -63,0 -104,52 -122,156 -9,51 -7,89 5,115 11,26 33,39 63,39zm-137 55l-80 0 -16 -100 -159 0 -49 100 -64 0 209 -420 92 0 67 420zm-106 -161l-28 -187 -92 187 120 0zm92 -372l16 31c-7,10 -17,19 -31,26 -14,7 -26,10 -36,10 -13,0 -27,-5 -44,-14 -12,-8 -22,-11 -29,-11 -9,0 -23,8 -42,24l-15 -32c22,-24 45,-35 66,-35 11,0 24,4 39,12 17,8 30,12 38,12 13,0 25,-7 38,-23zm-261 113l-50 290c-8,48 -24,83 -48,104 -24,21 -59,32 -103,32 -26,0 -46,-2 -59,-6l10 -61c22,1 38,2 47,2 25,0 43,-5 54,-14 10,-9 18,-28 23,-57l49 -290 77 0zm-397 365c27,0 51,-11 74,-34 22,-22 38,-63 49,-122 8,-48 6,-86 -4,-113 -11,-28 -32,-41 -65,-41 -63,0 -104,52 -122,156 -8,51 -7,89 5,115 12,26 33,39 63,39z"/>
   <path class="fil1" d="M10149 3719c73,312 112,637 112,972 0,2315 -1860,4204 -4139,4204 -2220,0 -4040,-1790 -4135,-4021 1907,-528 3197,213 4453,313 1061,52 2781,-776 3721,-1412 -4,-19 -8,-38 -13,-56 0,0 0,0 1,0zm-8164 1103c0,-1 0,-2 0,-3 0,0 0,0 0,0 0,1 0,2 0,3z"/>
   <path class="fil2" d="M3056 1899c0,0 0,-1 0,-1 0,0 0,0 0,0 0,0 0,0 0,0 0,0 0,0 0,0 0,0 0,0 0,0 0,0 0,0 0,0 0,0 0,0 0,0 1,0 1,0 1,0 0,0 0,0 0,0 0,0 0,0 0,0 0,0 0,0 0,0 0,0 0,0 0,0 0,0 0,0 0,0 0,0 0,-1 0,-1 1,0 1,-1 1,-1 3,-3 7,-7 10,-10 0,0 0,0 0,-1 0,0 0,0 0,0 0,0 0,0 1,0 0,0 0,0 0,-1 0,0 0,0 0,0 0,0 0,0 0,0 0,0 0,0 0,0 0,0 0,0 0,0 0,0 1,0 1,0 0,-1 0,-1 0,-1 0,0 0,0 0,0 0,0 0,0 0,0 0,0 0,0 0,0 0,0 0,0 0,0 0,0 0,0 0,0 0,0 0,0 0,0 0,0 0,0 0,0 0,0 0,0 0,0 0,0 0,0 0,0 0,0 0,-1 0,-1 0,0 0,0 0,0 1,0 1,0 1,0 0,0 0,0 0,0 0,0 0,0 0,0 0,0 0,0 0,0 0,0 0,0 0,0 0,0 0,0 0,0 0,0 0,0 0,0 0,0 0,0 0,0 0,0 0,0 0,0 0,0 0,0 0,0 0,0 0,0 0,0 0,0 0,0 0,-1 0,0 0,0 0,0 0,0 0,0 1,0 0,0 0,0 0,0 0,0 0,0 0,-1 0,0 0,0 0,0 0,0 0,0 0,0 3,-2 5,-4 7,-7 0,0 0,0 0,0 0,0 0,0 0,0 1,-1 2,-3 4,-4 14,-16 28,-31 42,-47 7,-7 13,-14 20,-21 17,-17 34,-35 51,-52 7,-8 14,-15 21,-22 17,-17 34,-34 51,-51 7,-7 15,-14 22,-21 18,-17 35,-34 53,-50 7,-7 14,-13 21,-20 17,-16 35,-31 53,-47 7,-6 14,-12 21,-19 17,-14 34,-29 51,-43 6,-6 12,-11 19,-16 19,-16 38,-32 58,-48 6,-5 13,-10 19,-15 20,-16 40,-32 60,-47 7,-6 14,-11 21,-16 21,-16 41,-31 61,-46 7,-5 15,-10 22,-15 21,-15 42,-30 63,-44 6,-5 12,-9 19,-13 21,-15 42,-29 63,-43 6,-4 12,-7 17,-11 21,-14 42,-27 64,-40 5,-3 10,-7 15,-10 24,-14 47,-28 70,-42 6,-4 13,-7 19,-11 23,-13 46,-27 69,-40 7,-3 14,-7 20,-11 24,-12 47,-25 71,-37 6,-4 13,-7 19,-10 24,-13 49,-25 73,-38 6,-2 11,-4 16,-7 24,-12 49,-24 73,-35 4,-2 8,-4 12,-5 26,-12 51,-24 77,-35 5,-2 10,-4 15,-6 25,-11 51,-22 78,-33 6,-2 12,-4 18,-7 25,-10 51,-20 77,-30 6,-2 12,-4 18,-7 27,-9 53,-19 80,-28 5,-2 11,-4 16,-6 28,-9 56,-18 84,-27 3,-1 6,-2 10,-3 27,-9 55,-18 84,-26 2,-1 5,-2 8,-2 29,-9 58,-17 87,-24 5,-2 9,-3 14,-4 28,-8 57,-15 85,-21 6,-2 11,-3 17,-4 28,-7 57,-13 85,-19 5,-1 11,-2 16,-3 29,-6 58,-12 88,-18 4,0 8,-1 12,-2 31,-5 62,-11 93,-16 1,0 3,0 5,0 30,-5 61,-9 92,-13 3,-1 6,-1 10,-2 30,-4 60,-7 91,-10 5,-1 10,-1 15,-2 30,-3 60,-6 90,-8 5,-1 11,-1 16,-1 30,-3 60,-5 91,-6 5,-1 10,-1 15,-1 31,-2 62,-3 93,-4 4,0 7,0 11,0 33,-1 66,-1 99,-1 27,0 54,0 81,1"/>
   <path class="fil0" d="M9399 2123c-730,-39 -1842,-650 -2683,-663 -1235,6 -2585,473 -3733,475 -644,735 -1037,1719 -1001,2762 1,43 3,105 5,147 1972,-563 3323,166 4610,263 1064,49 2637,-776 3561,-1373 -115,-596 -388,-1156 -759,-1611z"/>
   <path class="fil3" d="M4147 8171l-275 0 276 -1534 625 0c178,0 302,45 372,135 70,90 93,197 71,320 -25,140 -92,254 -200,340 -109,87 -235,131 -378,131l-381 0 -110 608zm4172 2l-892 0 248 -1380 883 0 -37 205 -636 0 -67 374 511 0 -36 201 -511 0 -69 386 644 0 -38 214zm-943 0l-289 0 -206 -544 -419 544 -231 0 564 -719 -254 -661 287 0 171 459 351 -459 232 0 -496 630 290 750zm-1152 0l-247 0 248 -1380 247 0 -248 1380zm-306 0l-892 0 248 -1380 883 0 -36 205 -636 0 -67 374 510 0 -36 201 -510 0 -70 386 645 0 -39 214zm-1619 -847l326 0c84,0 153,-21 205,-63 53,-42 85,-98 97,-168 12,-63 1,-117 -32,-162 -34,-45 -105,-67 -213,-67l-300 0 -83 460z"/>
   <path class="fil0" d="M4215 8136l-275 0 276 -1534 624 0c179,0 303,45 373,136 69,90 93,196 71,319 -25,141 -92,254 -201,341 -108,87 -235,130 -378,130l-381 0 -109 608zm4172 3l-893 0 248 -1381 884 0 -37 206 -636 0 -67 374 511 0 -36 200 -511 0 -70 386 645 0 -38 215zm-944 0l-288 0 -206 -544 -420 544 -230 0 564 -719 -255 -662 288 0 171 460 351 -460 231 0 -495 630 289 751zm-1151 0l-248 0 248 -1381 248 0 -248 1381zm-306 0l-892 0 248 -1381 883 0 -37 206 -636 0 -67 374 511 0 -36 200 -511 0 -69 386 644 0 -38 215zm-1619 -848l325 0c85,0 154,-21 206,-63 52,-42 85,-98 97,-167 11,-63 0,-117 -33,-162 -33,-45 -104,-67 -212,-67l-301 0 -82 459z"/>
   <path class="fil3" d="M6040 6569l-226 0 226 -1259 226 0 -226 1259zm551 20c-166,0 -284,-63 -354,-189 -71,-125 -89,-280 -56,-465 33,-183 110,-336 230,-459 121,-124 262,-186 423,-186 163,0 281,62 353,186 72,123 92,277 59,462 -35,194 -113,351 -232,471 -120,120 -261,180 -423,180zm35 -183c81,0 156,-34 225,-102 68,-67 118,-190 150,-368 26,-144 23,-258 -9,-340 -31,-82 -96,-123 -194,-123 -193,0 -318,157 -374,470 -27,152 -24,267 12,345 35,79 98,118 190,118zm-836 161l-266 0 -112 -575 -353 0 -104 575 -251 0 252 -1400 604 0c168,0 284,39 349,115 65,76 87,174 65,296 -32,179 -138,303 -317,370l133 619zm-695 -777l312 0c90,0 161,-19 212,-58 51,-38 83,-91 95,-158 11,-61 -2,-111 -38,-149 -37,-38 -95,-57 -173,-57l-332 0 -76 422z"/>
   <path class="fil3" d="M7858 6688c-54,0 -92,-20 -115,-61 -23,-41 -29,-92 -18,-152 10,-60 35,-110 75,-150 39,-41 85,-61 138,-61 53,0 91,20 115,61 24,40 30,90 19,151 -11,63 -37,114 -76,153 -39,40 -85,59 -138,59zm-507 -6l74 -411 151 0c56,0 97,19 123,59 27,40 35,89 25,147 -11,58 -37,107 -79,146 -42,39 -95,59 -160,59l-134 0zm87 -61l61 0c33,0 63,-12 91,-37 27,-25 46,-62 54,-111 8,-40 4,-74 -11,-102 -16,-28 -40,-42 -72,-42l-71 0 -52 292zm432 7c26,0 51,-11 73,-33 22,-22 39,-62 49,-120 9,-47 8,-84 -3,-111 -10,-27 -31,-40 -63,-40 -63,0 -104,51 -122,153 -9,50 -8,87 4,113 11,26 32,38 62,38z"/>
   <path class="fil0" d="M7898 6667c-54,0 -93,-20 -116,-61 -22,-41 -28,-92 -18,-152 11,-60 36,-110 76,-150 39,-40 85,-60 138,-60 53,0 91,20 115,60 23,40 30,91 19,151 -12,64 -37,115 -76,154 -39,39 -85,58 -138,58zm-507 -6l74 -411 151 0c55,0 97,20 123,60 27,39 35,88 24,146 -10,59 -36,107 -78,146 -42,40 -95,59 -160,59l-134 0zm87 -60l61 0c33,0 63,-13 91,-38 27,-25 45,-62 54,-111 7,-40 3,-74 -12,-102 -15,-28 -39,-42 -72,-42l-70 0 -52 293zm432 7c26,0 51,-11 73,-33 22,-22 39,-62 49,-120 9,-48 8,-85 -3,-111 -10,-27 -31,-41 -63,-41 -63,0 -104,52 -122,154 -9,49 -8,87 3,112 12,26 33,39 63,39z"/>
   <path class="fil4" d="M6121 491c1309,0 2480,630 3245,1613 -733,24 -1910,-723 -2804,-739 -1161,2 -2413,467 -3517,534 763,-864 1860,-1408 3076,-1408zm3260 1632c2,2 4,4 5,7 -1,-3 -3,-5 -5,-7zm36 47c1,2 2,3 3,5 0,0 0,0 0,0 -1,-2 -2,-3 -3,-5zm-6451 -178c0,0 0,0 0,0 0,0 -1,0 -1,1 4,-5 7,-9 11,-13 -3,4 -7,8 -10,12zm23 -28c7,-8 14,-16 21,-24 -7,8 -14,16 -21,24zm33 -38c7,-8 14,-17 22,-25 -8,8 -15,17 -22,25z"/>
   <path class="fil5" d="M1987 4830c0,18 1,38 2,56 1906,-534 3196,215 4451,317 1060,53 2781,-782 3721,-1426 -4,-19 -10,-42 -14,-61 -926,607 -2475,1415 -3542,1366 -1292,-99 -2620,-842 -4618,-252z"/>
   <path class="fil6" d="M9348 2071c-729,24 -1900,-710 -2788,-725 -1155,1 -2401,458 -3498,524 -26,30 -53,60 -78,91 1154,-3 2500,-473 3741,-479 845,14 1944,619 2677,658 -18,-23 -36,-46 -54,-69z"/>
   <path class="fil3" d="M6172 380c2396,0 4350,1985 4350,4418 0,2434 -1954,4418 -4350,4418 -2396,0 -4350,-1984 -4350,-4418 0,-2433 1954,-4418 4350,-4418zm-50 124c2273,0 4127,1883 4127,4192 0,2308 -1854,4191 -4127,4191 -2273,0 -4127,-1883 -4127,-4191 0,-2309 1854,-4192 4127,-4192z"/>
   <path class="fil0" d="M6104 6530l-226 0 226 -1259 226 0 -226 1259zm551 20c-166,0 -284,-63 -354,-189 -71,-125 -89,-280 -56,-465 33,-183 110,-336 230,-459 121,-124 262,-185 423,-185 163,0 281,61 353,185 72,123 92,277 59,462 -35,195 -113,352 -232,471 -120,120 -261,180 -423,180zm35 -183c81,0 156,-34 224,-102 69,-67 119,-190 151,-368 26,-144 23,-258 -9,-339 -31,-83 -96,-123 -194,-123 -193,0 -318,156 -374,469 -27,152 -24,267 12,345 35,79 98,118 190,118zm-836 161l-266 0 -112 -575 -353 0 -104 575 -250 0 251 -1399 604 0c167,0 284,38 349,114 65,76 87,175 65,296 -32,180 -138,303 -317,371l133 618zm-695 -777l312 0c90,0 161,-19 212,-58 51,-38 83,-91 95,-157 11,-62 -2,-112 -38,-150 -37,-38 -95,-57 -173,-57l-332 0 -76 422z"/>
   <path class="fil7" d="M6488 4744c1249,0 2060,-600 2731,-1521l0 0 -532 0c-616,794 -1272,1302 -2206,1302 -1075,0 -2282,-1364 -2956,-2371l-347 228c659,1006 2061,2362 3310,2362z"/>
   <path class="fil3" d="M8663 3254c-604,-765 -1252,-1251 -2166,-1251 -703,0 -1463,584 -2093,1270 -15,-16 -30,-33 -46,-50 636,-699 1409,-1301 2123,-1301 934,0 1590,508 2206,1301l0 0c-8,10 -16,21 -24,31zm-4501 295c-235,279 -446,564 -621,825l-347 -227c11,-17 22,-33 33,-49l298 195c167,-250 367,-522 590,-790 16,16 31,31 47,46z"/>
   <path class="fil3" d="M6469 4833c1249,0 2058,-594 2728,-1515l20 -92c-670,919 -1481,1518 -2729,1518 -1227,0 -2602,-1310 -3275,-2310l-55 36c660,1006 2062,2363 3311,2363z"/>
   <path class="fil8" d="M6488 1703c1249,0 2060,600 2731,1520l0 0 0 0 -532 0c0,0 0,0 0,0l0 0c-616,-793 -1272,-1301 -2206,-1301 -714,0 -1487,602 -2123,1301 -83,-92 -164,-185 -243,-280 694,-673 1566,-1240 2373,-1240zm-2373 1800c-223,268 -423,540 -590,790l-347 -228c174,-266 401,-557 664,-842 87,95 178,189 273,280z"/>
   <path class="fil9" d="M4302 3161c0,0 0,0 0,0 302,339 637,659 984,904 392,265 796,447 1155,459 13,1 27,1 40,1 270,0 526,-46 768,-130 544,-195 989,-600 1414,-1141 -604,-765 -1252,-1251 -2166,-1251 -703,0 -1463,584 -2093,1270 -15,-16 -30,-33 -46,-50 239,-262 497,-510 763,-719 -266,209 -524,457 -763,719 -19,-20 -37,-41 -56,-62zm4385 62c0,0 0,0 0,0 0,0 0,0 0,0zm0 0c-1,1 -1,2 -2,2 1,0 1,-1 2,-2zm-3 3c0,0 0,1 0,1 0,0 0,-1 0,-1zm-15 20c0,0 0,0 0,0 0,0 0,0 0,0zm-1 1c0,0 0,1 -1,1 1,0 1,-1 1,-1zm-1 2c-1,0 -1,0 -1,1 0,-1 0,-1 1,-1zm-2 1c0,1 -1,2 -1,3 0,-1 1,-2 1,-3zm-2 3c0,0 0,0 0,0 0,0 0,0 0,0z"/>
   <path class="fil3" d="M7558 4007c183,0 302,-88 400,-223l0 0 -78 0c-90,117 -186,191 -323,191 -158,0 -335,-200 -434,-348l-51 34c97,147 303,346 486,346z"/>
   <path class="fil0" d="M7353 2390c-275,12 -493,183 -484,382 8,199 240,352 516,341 276,-11 493,-183 485,-382 -9,-199 -241,-352 -517,-341z"/>
   <path class="fil10" d="M7454 2348c-315,-79 -621,42 -682,269 -61,228 146,478 461,557 315,79 622,-42 683,-269 60,-228 -147,-478 -462,-557zm-94 66c-262,11 -468,174 -460,363 8,188 228,334 490,323 262,-11 468,-174 460,-363 -8,-188 -228,-334 -490,-323z"/>
   <path class="fil3" d="M7620 2535c-106,0 -192,101 -192,224 0,122 86,223 192,223 106,0 192,-101 192,-223 0,-123 -86,-224 -192,-224z"/>
   <path class="fil3" d="M2914 5731l-394 0 111 -650 122 0 -93 544 267 0c-17,-48 -20,-103 -9,-167 13,-79 45,-145 96,-197 51,-54 111,-80 180,-80 69,0 119,26 151,80 31,52 40,119 26,198 -14,84 -47,152 -97,203 -51,52 -111,77 -180,77 -70,0 -121,-27 -151,-81 -5,-8 -9,-16 -12,-24l-17 97zm1225 8c-71,0 -122,-27 -152,-81 -30,-54 -38,-120 -25,-200 14,-79 46,-145 97,-197 51,-54 111,-80 179,-80 70,0 120,26 151,80 31,52 40,119 27,198 -15,84 -47,152 -98,203 -50,52 -110,77 -179,77zm14 -78c35,0 66,-15 95,-44 29,-29 50,-82 63,-158 11,-62 9,-111 -4,-146 -14,-36 -42,-53 -83,-53 -83,0 -135,67 -158,201 -12,66 -10,115 6,149 15,34 42,51 81,51zm-177 70l-103 0 -20 -129 -206 0 -63 129 -82 0 269 -542 118 0 87 542zm-136 -207l-36 -242 -119 242 155 0zm118 -481l21 40c-9,14 -22,25 -40,33 -18,9 -34,14 -47,14 -16,0 -35,-6 -56,-19 -16,-9 -29,-14 -38,-14 -12,0 -30,10 -54,31l-20 -41c29,-31 58,-46 86,-46 14,0 31,5 50,16 22,11 38,16 50,16 16,0 32,-10 48,-30zm-337 146l-64 374c-10,62 -31,107 -62,135 -31,27 -76,41 -134,41 -33,0 -58,-3 -76,-8l13 -79c29,3 50,3 62,3 32,0 55,-6 68,-18 14,-12 24,-37 31,-74l63 -374 99 0zm-512 472c34,0 66,-15 95,-44 29,-29 50,-82 63,-158 10,-62 9,-111 -5,-146 -14,-36 -41,-53 -83,-53 -82,0 -135,67 -158,201 -11,66 -9,115 6,149 15,34 43,51 82,51z"/>
   <path class="fil0" d="M2945 5703l-394 0 111 -650 121 0 -92 544 267 0c-17,-47 -20,-103 -10,-166 14,-79 46,-145 97,-198 51,-53 111,-80 180,-80 69,0 119,27 150,80 31,53 40,119 27,199 -15,83 -47,151 -98,203 -50,51 -110,77 -179,77 -71,0 -121,-27 -152,-81 -4,-8 -8,-16 -12,-25l-16 97zm1225 9c-71,0 -122,-27 -152,-81 -30,-54 -39,-121 -25,-200 13,-79 46,-145 96,-198 52,-53 111,-80 180,-80 69,0 120,27 151,80 31,53 40,119 26,199 -14,83 -47,151 -97,203 -51,51 -110,77 -179,77zm14 -79c34,0 66,-14 95,-44 29,-29 50,-81 63,-158 11,-62 9,-111 -5,-146 -13,-35 -41,-53 -83,-53 -82,0 -135,67 -158,202 -11,65 -9,115 6,149 16,33 43,50 82,50zm-177 70l-103 0 -21 -129 -205 0 -64 129 -82 0 270 -541 118 0 87 541zm-136 -207l-37 -241 -119 241 156 0zm118 -481l21 41c-9,13 -22,24 -40,33 -19,9 -34,13 -47,13 -16,0 -35,-6 -56,-18 -17,-10 -29,-15 -38,-15 -12,0 -30,11 -54,31l-20 -41c29,-30 58,-45 86,-45 13,0 30,5 50,15 22,11 38,17 50,17 15,0 32,-10 48,-31zm-337 147l-64 374c-11,62 -31,107 -63,134 -31,28 -75,42 -133,42 -33,0 -59,-3 -76,-9l13 -78c29,2 49,3 61,3 32,0 55,-6 69,-18 14,-12 24,-37 30,-74l64 -374 99 0zm-513 471c35,0 67,-14 96,-44 28,-29 49,-81 63,-158 10,-62 8,-111 -5,-146 -14,-35 -42,-53 -83,-53 -83,0 -135,67 -158,202 -11,65 -9,115 6,149 15,33 42,50 81,50z"/>
   <path class="fil0" d="M2418 10222l73 -86c86,-103 198,-193 337,-193 42,0 82,9 121,23l105 -134 351 368 -49 66c74,-39 160,-61 260,-61 193,0 350,95 427,276 72,170 55,380 22,558 -67,362 -243,753 -661,753 -56,0 -109,-8 -158,-23l1 6 -653 0 0 -3 -1 3 -506 0c-47,12 -97,17 -146,17 -57,0 -115,-10 -170,-22l-111 -25 28 76 1183 0c31,-7 63,-11 96,-11 143,0 255,61 329,163l20 -152 684 0 6 -46 -14 0 342 -1846 554 0c68,0 143,2 210,16 83,18 155,63 215,125l1 1c42,44 73,95 95,151l470 0 -6 32c68,-31 147,-49 236,-49 193,0 350,95 427,276 72,170 55,380 22,558 -67,362 -243,753 -661,753 -113,0 -213,-32 -292,-95l-14 78 -715 0 -9 64 1331 0c73,0 147,10 212,44 18,9 34,19 49,30 69,-54 152,-85 247,-85 56,0 109,11 157,31l3 -20 347 0c90,0 179,20 253,73 11,7 21,15 31,24 73,-68 165,-108 273,-108 56,0 109,11 157,31l3 -20 810 0 87 -64 -415 0 343 -1846 522 0c103,0 217,7 313,45 115,44 192,135 237,248l2518 0 -117 629 -82 0 -53 287 82 0 -119 637 -2721 0 23 59c23,-4 47,-6 72,-6 35,0 68,4 99,11l961 0c32,-8 67,-13 104,-13 94,0 181,31 253,90 69,-56 153,-88 250,-88 91,0 173,28 242,80 68,-53 152,-80 242,-80 213,0 358,137 410,341l54 206 -78 23c11,41 16,83 16,126 0,113 -36,219 -110,305 -83,95 -197,138 -321,138 -93,0 -181,-26 -256,-79 -68,49 -148,77 -240,77 -95,0 -181,-32 -251,-89 -68,56 -155,90 -259,90 -56,0 -108,-10 -156,-29l-2 17 -875 0c-36,9 -74,13 -112,13 -38,0 -75,-4 -111,-13l-1466 0c-30,7 -62,11 -95,11 -102,0 -194,-37 -267,-103 -41,33 -86,59 -138,73l-1 1c-55,15 -113,20 -170,20l-2 0 -384 -4c-32,8 -66,13 -101,13 -33,0 -64,-4 -94,-11l-2722 0 3 -18 -684 0 7 -53c-70,45 -152,66 -238,66 -43,0 -84,-6 -124,-17l-1 4 -1321 0 -5 -45c-60,36 -130,55 -206,55 -61,0 -117,-12 -168,-36l-4 26 -1109 0 154 -1161 -36 0 342 -1846 702 0 -213 1144 8 0c4,-40 11,-78 18,-116 67,-362 242,-752 661,-752 145,0 271,54 357,159l26 -142 399 0zm6897 1497l93 -502c-63,20 -131,30 -197,34l-52 278 66 -49 90 239zm-1707 -1316c102,-120 241,-198 429,-198 192,0 350,95 427,276 72,170 54,380 22,558 -68,362 -243,753 -662,753 -163,0 -301,-68 -385,-198 -2,1 -3,3 -5,5 -64,64 -139,115 -226,143 -77,24 -158,33 -238,33l-509 0 288 -1553 403 0c113,0 231,17 332,73 50,28 91,65 124,108z"/>
   <path class="fil11" d="M4634 11959l-20 148 -289 0 -22 159 242 0 -18 140 -243 0 -24 182 295 0 -20 147 -438 0 103 -776 434 0zm-3610 -18l-103 776 -144 0 86 -649 -248 649 -82 0 -83 -656 -87 656 -116 0 102 -776 217 0 54 475 181 -475 223 0zm257 786c-64,0 -115,-27 -154,-81 -39,-53 -58,-125 -58,-213 0,-108 23,-202 69,-283 46,-81 107,-121 183,-121 66,0 117,27 156,82 38,54 57,127 57,216 0,109 -22,203 -68,282 -46,79 -107,118 -185,118zm2 -125c46,0 79,-34 99,-100 20,-67 30,-133 30,-197 0,-101 -30,-151 -91,-151 -42,0 -74,31 -96,94 -22,63 -32,132 -32,207 0,98 30,147 90,147zm27 -620l-19 -55 162 -119 30 80 -173 94zm751 58l-247 677 -130 0 -79 -677 123 0 52 506 174 -506 107 0zm439 0l-17 128 -253 0 -18 139 211 0 -16 123 -212 0 -21 158 257 0 -17 129 -383 0 90 -677 379 0zm215 0l-90 677 -124 0 90 -677 124 0zm454 166l-110 32c-13,-56 -43,-84 -92,-84 -23,0 -40,7 -54,20 -13,14 -20,30 -20,49 0,19 6,34 16,44 11,10 32,20 62,29 44,14 79,29 104,44 25,16 44,37 58,65 14,27 20,61 20,101 0,63 -18,117 -56,160 -37,42 -90,64 -159,64 -59,0 -107,-17 -146,-52 -39,-34 -64,-85 -73,-154l115 -20c12,67 48,101 109,101 27,0 49,-8 63,-23 15,-14 22,-33 22,-56 0,-22 -5,-38 -16,-48 -11,-9 -37,-21 -78,-35 -37,-12 -67,-26 -88,-41 -22,-14 -40,-36 -53,-63 -13,-27 -19,-58 -19,-93 0,-58 17,-108 51,-152 35,-43 82,-65 142,-65 104,0 172,59 202,177zm715 -166l-18 128 -252 0 -18 139 210 0 -16 123 -211 0 -21 158 257 0 -17 129 -383 0 90 -677 379 0zm962 18l-73 549 211 0 -17 128 -335 0 90 -677 124 0zm658 0l-17 129 -253 0 -18 138 211 0 -16 123 -212 0 -20 159 257 0 -18 128 -382 0 89 -677 379 0zm415 129l-135 0 -73 548 -124 0 73 -548 -135 0 17 -129 394 0 -17 129zm147 279l-36 269 -121 0 90 -677 199 0c50,0 89,7 116,21 27,13 49,37 64,70 16,33 23,68 23,105 0,39 -9,77 -28,113 -18,35 -49,60 -92,75l67 293 -126 0 -56 -269 -100 0zm36 -289l-23 171 80 0c30,0 53,-2 68,-8 14,-5 26,-14 35,-29 10,-15 14,-33 14,-54 0,-29 -7,-49 -21,-62 -14,-12 -38,-18 -72,-18l-81 0zm564 569c-64,0 -115,-27 -154,-81 -39,-54 -58,-125 -58,-214 0,-107 23,-201 69,-282 46,-81 107,-122 183,-122 65,0 117,28 156,82 38,55 57,127 57,217 0,109 -22,202 -68,281 -46,79 -107,119 -185,119zm1 -126c47,0 80,-33 100,-100 20,-67 30,-132 30,-197 0,-100 -30,-151 -91,-151 -42,0 -74,32 -96,94 -21,63 -32,132 -32,207 0,98 30,147 89,147zm298 115l90 -677 158 0c56,0 99,11 130,33 31,22 56,57 77,106 21,48 31,105 31,170 0,61 -9,118 -26,171 -18,52 -41,95 -70,126 -29,32 -59,52 -88,60 -30,8 -68,13 -114,13l-188 -2zm134 -120l65 0c65,0 108,-28 129,-83 22,-54 32,-113 32,-175 0,-120 -37,-179 -113,-179l-55 0 -58 437zm630 131c-63,0 -114,-27 -153,-81 -39,-54 -58,-125 -58,-214 0,-107 23,-201 69,-282 46,-81 107,-122 183,-122 65,0 117,28 156,82 38,55 57,127 57,217 0,109 -23,202 -68,281 -46,79 -108,119 -186,119zm2 -126c47,0 80,-33 99,-100 20,-67 30,-132 30,-197 0,-100 -30,-151 -90,-151 -42,0 -75,32 -96,94 -22,63 -32,132 -32,207 0,98 30,147 89,147zm976 -562l-90 677 -125 0 75 -566 -217 566 -72 0 -72 -572 -76 572 -101 0 89 -677 189 0 48 414 157 -414 195 0zm496 0l-18 129 -252 0 -19 138 211 0 -16 123 -211 0 -21 159 257 0 -17 128 -383 0 90 -677 379 0zm-222 -57l-18 -56 161 -119 30 80 -173 95zm650 223l-110 33c-13,-57 -43,-85 -92,-85 -22,0 -40,7 -53,21 -14,13 -20,30 -20,49 0,19 5,33 16,43 11,10 31,20 62,30 44,13 78,28 103,44 25,15 45,36 58,64 14,28 21,61 21,101 0,64 -19,117 -56,160 -38,43 -91,64 -159,64 -59,0 -108,-17 -147,-51 -39,-34 -63,-86 -73,-155l115 -20c12,68 48,101 109,101 28,0 49,-7 64,-22 14,-15 22,-34 22,-57 0,-22 -6,-37 -17,-47 -11,-10 -37,-22 -78,-36 -37,-12 -66,-26 -88,-40 -22,-15 -40,-36 -52,-64 -14,-27 -20,-58 -20,-93 0,-57 17,-108 52,-151 34,-44 81,-66 142,-66 104,0 171,59 201,177zm454 -37l-135 0 -73 548 -123 0 72 -548 -135 0 17 -129 395 0 -18 129zm204 -129l-90 677 -123 0 90 -677 123 0zm508 255l-122 7c0,-10 0,-18 0,-24 0,-34 -6,-63 -20,-86 -14,-24 -34,-36 -62,-36 -45,0 -77,34 -97,103 -20,68 -29,135 -29,200 0,49 8,84 25,107 16,22 37,33 63,33 53,0 89,-42 109,-125l111 24c-41,154 -118,232 -229,232 -69,0 -122,-29 -158,-87 -37,-57 -55,-126 -55,-207 0,-108 24,-203 71,-285 48,-83 111,-124 190,-124 56,0 104,22 142,65 39,44 59,111 61,203zm259 433c-63,0 -114,-27 -153,-81 -39,-54 -58,-125 -58,-214 0,-107 23,-201 69,-282 46,-81 107,-122 183,-122 65,0 117,28 156,82 38,55 57,127 57,217 0,109 -23,202 -68,281 -46,79 -108,119 -186,119zm2 -126c46,0 80,-33 99,-100 20,-67 30,-132 30,-197 0,-100 -30,-151 -90,-151 -43,0 -75,32 -96,94 -22,63 -32,132 -32,207 0,98 29,147 89,147zm725 -396l-110 33c-13,-57 -44,-85 -92,-85 -23,0 -41,7 -54,21 -13,13 -20,30 -20,49 0,19 6,33 16,43 11,10 32,20 62,30 44,13 79,28 104,44 25,15 44,36 58,64 13,28 20,61 20,101 0,64 -19,117 -56,160 -37,43 -90,64 -159,64 -59,0 -107,-17 -146,-51 -39,-34 -64,-86 -73,-155l115 -20c12,68 48,101 109,101 27,0 49,-7 63,-22 15,-15 22,-34 22,-57 0,-22 -5,-37 -16,-47 -12,-10 -37,-22 -78,-36 -37,-12 -67,-26 -89,-40 -22,-15 -39,-36 -52,-64 -13,-27 -19,-58 -19,-93 0,-57 17,-108 51,-151 35,-44 82,-66 142,-66 104,0 171,59 202,177z"/>
   <path class="fil11" d="M639 10148l263 0 -213 1144 385 0 -49 264 -647 0 261 -1408zm1234 850c-72,383 -221,575 -450,575 -113,0 -190,-49 -229,-146 -40,-98 -42,-241 -8,-429 71,-383 221,-574 450,-574 111,0 188,48 229,144 40,95 43,239 8,430zm-219 0c28,-150 36,-250 26,-300 -11,-50 -38,-75 -81,-75 -43,0 -79,25 -108,75 -30,50 -58,150 -86,300 -27,147 -36,246 -26,298 10,52 37,78 81,78 42,0 79,-25 108,-75 29,-49 58,-150 86,-301zm544 -557l208 0 -137 740c-18,94 -38,167 -59,220 -22,53 -54,94 -96,126 -43,31 -101,46 -173,46 -31,0 -73,-6 -123,-17l38 -205c31,7 58,11 81,11 36,0 63,-11 79,-34 16,-24 31,-72 45,-147l137 -740zm548 0l209 0 63 1115 -212 0 -4 -230 -266 0 -89 230 -191 0 490 -1115zm52 693l-11 -455 -176 455 187 0zm272 -971l52 54c-63,84 -124,125 -182,125 -22,0 -50,-9 -82,-29 -37,-21 -63,-31 -79,-31 -18,0 -43,17 -75,51l-49 -55c65,-78 123,-116 173,-116 23,0 52,9 86,28 37,21 64,32 79,32 20,0 46,-20 77,-59zm783 835c-71,383 -221,575 -449,575 -114,0 -190,-49 -230,-146 -40,-98 -42,-241 -7,-429 71,-383 221,-574 449,-574 112,0 188,48 229,144 41,95 43,239 8,430zm-219 0c28,-150 37,-250 26,-300 -10,-50 -38,-75 -81,-75 -43,0 -79,25 -108,75 -29,50 -58,150 -85,300 -28,147 -36,246 -26,298 10,52 36,78 80,78 43,0 79,-25 108,-75 29,-49 58,-150 86,-301zm879 -850l375 0c73,0 128,3 165,12 38,7 73,29 106,63 33,35 56,83 67,143 11,60 10,127 -4,202 -33,177 -112,300 -237,372l105 616 -286 0 -56 -557 -131 0 -103 557 -262 0 261 -1408zm220 227l-73 396 115 0c103,0 166,-68 192,-204 8,-46 8,-84 -2,-114 -9,-30 -23,-51 -41,-61 -19,-11 -47,-17 -86,-17l-105 0zm678 66l208 0 -207 1115 -208 0 207 -1115zm935 557c-71,383 -221,575 -449,575 -114,0 -190,-49 -230,-146 -40,-98 -42,-241 -7,-429 71,-383 221,-574 449,-574 112,0 188,48 229,144 41,95 44,239 8,430zm-219 0c28,-150 37,-250 26,-300 -10,-50 -37,-75 -81,-75 -43,0 -79,25 -108,75 -29,50 -57,150 -85,300 -28,147 -36,246 -26,298 10,52 37,78 80,78 43,0 79,-25 108,-75 30,-49 58,-150 86,-301zm801 -557l224 0c97,0 173,15 228,46 55,31 93,88 114,170 21,83 18,195 -8,336 -18,100 -46,189 -83,267 -36,77 -77,139 -121,183 -44,45 -90,75 -139,90 -47,15 -105,23 -173,23l-249 0 207 -1115zm172 191l-135 732 35 0c48,0 87,-11 117,-33 31,-22 59,-60 85,-114 25,-54 48,-132 67,-235 17,-94 22,-167 14,-218 -8,-51 -23,-86 -45,-104 -23,-19 -57,-28 -102,-28l-36 0zm1174 366c-71,383 -221,575 -450,575 -113,0 -190,-49 -229,-146 -40,-98 -42,-241 -7,-429 71,-383 220,-574 449,-574 111,0 188,48 229,144 40,95 43,239 8,430zm-219 0c28,-150 36,-250 26,-300 -11,-50 -38,-75 -81,-75 -43,0 -79,25 -108,75 -29,50 -58,150 -86,300 -27,147 -36,246 -25,298 10,52 36,78 80,78 42,0 79,-25 108,-75 29,-49 58,-150 86,-301zm879 -850l343 0c105,0 184,10 237,31 54,20 93,67 119,139 26,73 28,163 8,270 -19,103 -50,189 -94,256 -44,67 -97,116 -158,146 -61,30 -150,45 -265,45l-93 0 -96 521 -263 0 262 -1408zm220 227l-78 417 82 0c71,0 121,-19 149,-58 28,-39 48,-91 60,-153 9,-53 9,-96 -1,-128 -10,-33 -24,-54 -44,-63 -20,-10 -49,-15 -87,-15l-81 0zm617 66l575 0 -36 191 -367 0 -48 259 285 0 -35 192 -285 0 -51 274 367 0 -37 199 -575 0 207 -1115zm676 0l208 0 -207 1115 -208 0 207 -1115zm304 0l232 0 58 290 173 -290 199 0 -316 504 138 611 -228 0 -70 -365 -222 365 -199 0 366 -572 -131 -543zm759 0l575 0 -36 191 -367 0 -48 259 285 0 -35 192 -285 0 -51 274 367 0 -37 199 -575 0 207 -1115z"/>
  </g>
 </g>
</svg>
